<svg width="48" height="51" viewBox="0 0 48 51" fill="none" xmlns="http://www.w3.org/2000/svg">
<g filter="url(#filter0_d)">
<path d="M39.0625 35.8677C39.0713 35.8545 39.0845 35.8413 39.0933 35.8281C41.9717 32.4048 43.7031 27.9927 43.7031 23.1719C43.7031 18.3511 41.9717 13.939 39.0977 10.5156C39.0889 10.5024 39.0757 10.4937 39.0669 10.4805C39.0186 10.4233 38.9746 10.3706 38.9263 10.3179C38.9087 10.2959 38.8911 10.2783 38.8735 10.2563L38.6934 10.0498L38.689 10.0454C38.623 9.9707 38.5527 9.896 38.4868 9.82129L38.4824 9.81689C38.3418 9.66748 38.2012 9.51807 38.0562 9.37305L38.0518 9.36865L37.8408 9.15772L37.8276 9.14453C37.7617 9.07861 37.6958 9.01709 37.6299 8.95557C37.6079 8.93359 37.5859 8.91162 37.5596 8.88965C37.5156 8.8457 37.4717 8.80615 37.4277 8.7666C37.4146 8.75342 37.397 8.74023 37.3838 8.72266C33.877 5.4707 29.1792 3.48438 24.0156 3.48438C18.8521 3.48438 14.1543 5.4707 10.6431 8.72266C10.6299 8.73584 10.6123 8.74902 10.5991 8.7666C10.5552 8.80615 10.5112 8.8501 10.4673 8.89404C10.4453 8.91602 10.4233 8.93799 10.397 8.95996C10.3311 9.02148 10.2651 9.0874 10.1992 9.14893L10.186 9.16211L9.9751 9.37305L9.9707 9.37744C9.82568 9.52246 9.68506 9.67187 9.54443 9.82129L9.54004 9.82568C9.46973 9.90039 9.40381 9.9751 9.33789 10.0498L9.3335 10.0542C9.27197 10.1201 9.21045 10.1904 9.15332 10.2607C9.13574 10.2827 9.11816 10.3003 9.10059 10.3223C9.05225 10.375 9.0083 10.4321 8.95996 10.4849C8.95117 10.498 8.93799 10.5068 8.9292 10.52C6.05957 13.939 4.32812 18.3511 4.32812 23.1719C4.32812 27.9927 6.05957 32.4048 8.93359 35.8281C8.94238 35.8413 8.95557 35.8545 8.96436 35.8677L9.10059 36.0303C9.11816 36.0522 9.13574 36.0698 9.15332 36.0918L9.3335 36.2983C9.3335 36.3027 9.33789 36.3027 9.33789 36.3071C9.40381 36.3818 9.46973 36.4565 9.54004 36.5269L9.54443 36.5312C9.68506 36.6807 9.82568 36.8301 9.96631 36.9751L9.9707 36.9795C10.041 37.0498 10.1069 37.1201 10.1772 37.186L10.1904 37.1992C10.3354 37.3442 10.4849 37.4849 10.6343 37.6211C14.1543 40.873 18.8521 42.8594 24.0156 42.8594C29.1792 42.8594 33.877 40.873 37.3882 37.6211C37.5379 37.4839 37.6844 37.3432 37.8276 37.1992L37.8408 37.186C37.9111 37.1157 37.9814 37.0498 38.0474 36.9795L38.0518 36.9751C38.1968 36.8301 38.3374 36.6807 38.4736 36.5312L38.478 36.5269C38.5439 36.4521 38.6143 36.3818 38.6802 36.3071C38.6802 36.3027 38.6846 36.3027 38.6846 36.2983C38.7461 36.2324 38.8076 36.1621 38.8647 36.0918C38.8823 36.0698 38.8999 36.0522 38.9175 36.0303C38.9672 35.9773 39.0155 35.9231 39.0625 35.8677V35.8677ZM39.2427 29.6011C38.6362 31.0337 37.8364 32.3608 36.8608 33.5649C35.7621 32.6154 34.5608 31.7914 33.2793 31.1084C33.7891 29.0474 34.1055 26.7842 34.189 24.4023H40.4951C40.3633 26.1997 39.9414 27.9443 39.2427 29.6011ZM40.4951 21.9414H34.189C34.1055 19.5596 33.7891 17.2964 33.2793 15.2354C34.5669 14.5498 35.7666 13.7236 36.8608 12.7788C38.9815 15.389 40.25 18.5872 40.4951 21.9414V21.9414ZM30.4448 7.94482C32.1895 8.68311 33.7759 9.70264 35.1733 10.9858C34.3615 11.6771 33.4877 12.292 32.563 12.8228C31.873 10.8452 30.9897 9.12695 29.9614 7.75147C30.124 7.81299 30.2866 7.87891 30.4448 7.94482ZM26.4634 38.7329C26.0591 39.0493 25.6548 39.291 25.2461 39.4536V31.3018C26.9898 31.4234 28.7046 31.8117 30.3306 32.4531C29.9658 33.5342 29.5439 34.5317 29.0562 35.4326C28.2915 36.8564 27.395 37.9946 26.4634 38.7329ZM29.0562 10.9111C29.5396 11.8164 29.9658 12.814 30.3306 13.8906C28.7046 14.532 26.9898 14.9203 25.2461 15.042V6.89453C25.6504 7.05713 26.0591 7.29443 26.4634 7.61523C27.395 8.34912 28.2915 9.4873 29.0562 10.9111V10.9111ZM25.2461 28.8364V24.4023H31.728C31.6577 26.3447 31.416 28.23 31.0117 30.0186L30.9985 30.0713C29.1543 29.3719 27.2149 28.9556 25.2461 28.8364V28.8364ZM25.2461 21.9414V17.5073C27.2588 17.3843 29.1924 16.958 30.9985 16.2725L31.0117 16.3252C31.416 18.1138 31.6577 19.9946 31.728 21.9414H25.2461ZM22.7852 24.4023V28.8364C20.7725 28.9595 18.8389 29.3857 17.0327 30.0713L17.0195 30.0186C16.6152 28.23 16.3735 26.3491 16.3032 24.4023H22.7852ZM16.3032 21.9414C16.3735 19.999 16.6152 18.1138 17.0195 16.3252L17.0327 16.2725C18.8389 16.958 20.7681 17.3843 22.7852 17.5073V21.9414H16.3032ZM22.7852 31.3018V39.4492C22.3809 39.2866 21.9722 39.0493 21.5679 38.7285C20.6362 37.9946 19.7354 36.8521 18.9707 35.4282C18.4873 34.523 18.061 33.5254 17.6963 32.4487C19.3311 31.8071 21.0317 31.4248 22.7852 31.3018ZM22.7852 15.042C21.0414 14.9203 19.3267 14.532 17.7007 13.8906C18.0654 12.8096 18.4873 11.812 18.9751 10.9111C19.7397 9.4873 20.6362 8.34473 21.5723 7.61084C21.9766 7.29443 22.3809 7.05273 22.7896 6.89014V15.042H22.7852ZM17.5864 7.94482C17.749 7.87891 17.9072 7.81299 18.0698 7.75147C17.0415 9.12695 16.1582 10.8452 15.4683 12.8228C14.5454 12.2954 13.6709 11.6802 12.8579 10.9858C14.2554 9.70264 15.8418 8.68311 17.5864 7.94482V7.94482ZM8.78857 16.7427C9.39502 15.3101 10.1948 13.9829 11.1704 12.7788C12.2646 13.7236 13.4644 14.5498 14.752 15.2354C14.2422 17.2964 13.9258 19.5596 13.8423 21.9414H7.53613C7.66797 20.144 8.08984 18.3994 8.78857 16.7427ZM7.53613 24.4023H13.8423C13.9258 26.7842 14.2422 29.0474 14.752 31.1084C13.4704 31.7914 12.2691 32.6154 11.1704 33.5649C9.04974 30.9547 7.78121 27.7565 7.53613 24.4023V24.4023ZM17.5864 38.3989C15.8418 37.6606 14.2554 36.6411 12.8579 35.3579C13.6709 34.6636 14.5454 34.0527 15.4683 33.521C16.1582 35.4985 17.0415 37.2168 18.0698 38.5923C17.9072 38.5308 17.7446 38.4648 17.5864 38.3989ZM30.4448 38.3989C30.2822 38.4648 30.124 38.5308 29.9614 38.5923C30.9897 37.2168 31.873 35.4985 32.563 33.521C33.4858 34.0483 34.3604 34.6636 35.1733 35.3579C33.7836 36.6358 32.184 37.6645 30.4448 38.3989V38.3989Z" fill="white"/>
</g>
<defs>
<filter id="filter0_d" x="-2.48438" y="0.671875" width="53" height="53" filterUnits="userSpaceOnUse" color-interpolation-filters="sRGB">
<feFlood flood-opacity="0" result="BackgroundImageFix"/>
<feColorMatrix in="SourceAlpha" type="matrix" values="0 0 0 0 0 0 0 0 0 0 0 0 0 0 0 0 0 0 127 0"/>
<feOffset dy="4"/>
<feGaussianBlur stdDeviation="2"/>
<feColorMatrix type="matrix" values="0 0 0 0 0 0 0 0 0 0 0 0 0 0 0 0 0 0 0.25 0"/>
<feBlend mode="normal" in2="BackgroundImageFix" result="effect1_dropShadow"/>
<feBlend mode="normal" in="SourceGraphic" in2="effect1_dropShadow" result="shape"/>
</filter>
</defs>
</svg>
