<svg width="51" height="50" viewBox="0 0 51 50" fill="none" xmlns="http://www.w3.org/2000/svg">
<path d="M43.3613 6.24219H7.42383C6.55957 6.24219 5.86133 6.92646 5.86133 7.77344V42.9922C5.86133 43.8392 6.55957 44.5234 7.42383 44.5234H43.3613C44.2256 44.5234 44.9238 43.8392 44.9238 42.9922V7.77344C44.9238 6.92646 44.2256 6.24219 43.3613 6.24219ZM25.4463 25.6747L16.0713 33.3788C15.8174 33.5894 15.4316 33.4123 15.4316 33.0869V30.0866C15.4316 29.9766 15.4854 29.8665 15.5732 29.7947L20.9346 25.3828L15.5732 20.9709C15.5284 20.9362 15.4922 20.8918 15.4677 20.8411C15.4431 20.7905 15.4308 20.735 15.4316 20.679V17.6787C15.4316 17.3533 15.8174 17.1763 16.0713 17.3868L25.4463 25.0861C25.6367 25.2393 25.6367 25.5216 25.4463 25.6747ZM35.3535 33.0869C35.3535 33.2975 35.1875 33.4697 34.9873 33.4697H25.9541C25.7539 33.4697 25.5879 33.2975 25.5879 33.0869V30.79C25.5879 30.5795 25.7539 30.4072 25.9541 30.4072H34.9873C35.1875 30.4072 35.3535 30.5795 35.3535 30.79V33.0869Z" fill="white"/>
</svg>
