<svg width="55" height="57" viewBox="0 0 55 57" fill="none" xmlns="http://www.w3.org/2000/svg">
<g filter="url(#filter0_d)">
<path d="M27.4634 3.16992C15.3898 3.16992 5.48637 12.2807 4.55078 23.8608L16.8716 28.8486C17.9525 28.1273 19.2308 27.7421 20.5392 27.7434C20.6585 27.7434 20.7792 27.7504 20.8985 27.7504L26.3784 19.9867V19.8771C26.3784 15.1972 30.263 11.3962 35.0459 11.3962C39.8287 11.3962 43.7206 15.2042 43.7206 19.8841C43.7175 22.1336 42.8024 24.2901 41.176 25.8801C39.5496 27.4702 37.3449 28.3638 35.0459 28.3649H34.8519L27.0366 33.821C27.0366 33.9236 27.0438 34.0193 27.0438 34.1219C27.0438 37.6374 24.1393 40.4864 20.5464 40.4864C17.4177 40.4864 14.7675 38.2885 14.1611 35.3749L5.34409 31.8003C8.07613 41.2486 16.9319 48.1699 27.4634 48.1699C40.1578 48.1699 50.4508 38.1001 50.4508 25.6706C50.4508 13.2412 40.1593 3.17133 27.4634 3.17133V3.16992ZM18.9526 37.314L16.13 36.1708C16.6498 37.2274 17.547 38.0613 18.6522 38.5149C19.8485 38.9995 21.1923 39.0003 22.3892 38.5171C23.5861 38.034 24.5384 37.1063 25.0375 35.9373C25.2851 35.3588 25.4132 34.7379 25.4144 34.1107C25.4157 33.4834 25.29 32.8621 25.0447 32.2826C24.8027 31.7 24.4442 31.1706 23.9904 30.7253C23.5366 30.2801 22.9965 29.9279 22.4017 29.6896C21.2559 29.2212 19.9702 29.2001 18.8088 29.6305L21.7205 30.8103C23.5543 31.564 24.4224 33.6227 23.6593 35.417C22.8961 37.2114 20.7849 38.0607 18.9511 37.314H18.9526ZM40.8247 19.8686C40.8232 18.3707 40.2148 16.9344 39.133 15.8745C38.0511 14.8146 36.584 14.2176 35.0531 14.2143C33.5204 14.2143 32.0506 14.81 30.9668 15.8704C29.8831 16.9308 29.2742 18.369 29.2742 19.8686C29.2742 21.3682 29.8831 22.8065 30.9668 23.8668C32.0506 24.9272 33.5204 25.523 35.0531 25.523C36.5843 25.5207 38.0521 24.9241 39.1342 23.864C40.2163 22.8038 40.8243 21.3669 40.8247 19.8686V19.8686ZM30.7272 19.8616C30.7272 17.5104 32.6659 15.6134 35.0617 15.6134C37.4574 15.6134 39.4105 17.5104 39.4105 19.8616C39.4105 22.2057 37.4574 24.1097 35.0617 24.1097C32.6659 24.1097 30.7272 22.2057 30.7272 19.8616V19.8616Z" fill="white"/>
</g>
<defs>
<filter id="filter0_d" x="-2" y="0.669922" width="59" height="58" filterUnits="userSpaceOnUse" color-interpolation-filters="sRGB">
<feFlood flood-opacity="0" result="BackgroundImageFix"/>
<feColorMatrix in="SourceAlpha" type="matrix" values="0 0 0 0 0 0 0 0 0 0 0 0 0 0 0 0 0 0 127 0"/>
<feOffset dy="4"/>
<feGaussianBlur stdDeviation="2"/>
<feColorMatrix type="matrix" values="0 0 0 0 0 0 0 0 0 0 0 0 0 0 0 0 0 0 0.25 0"/>
<feBlend mode="normal" in2="BackgroundImageFix" result="effect1_dropShadow"/>
<feBlend mode="normal" in="SourceGraphic" in2="effect1_dropShadow" result="shape"/>
</filter>
</defs>
</svg>
