<svg width="63" height="61" viewBox="0 0 63 61" fill="none" xmlns="http://www.w3.org/2000/svg">
<g filter="url(#filter0_d)">
<path d="M38.1087 29.3526C37.9186 29.1685 37.6928 29.0224 37.4443 28.9226C37.1958 28.8229 36.9295 28.7716 36.6605 28.7715C36.3915 28.7714 36.1251 28.8226 35.8765 28.9221C35.628 29.0217 35.4021 29.1676 35.2118 29.3516C35.0215 29.5356 34.8706 29.7541 34.7675 29.9946C34.6645 30.235 34.6114 30.4928 34.6113 30.7531C34.6112 31.0135 34.6641 31.2713 34.767 31.5118C34.8698 31.7523 35.0206 31.9709 35.2108 32.1551C35.5948 32.527 36.1158 32.736 36.659 32.7362C37.2023 32.7364 37.7234 32.5277 38.1077 32.1561C38.492 31.7844 38.708 31.2803 38.7082 30.7545C38.7084 30.2288 38.4927 29.7245 38.1087 29.3526V29.3526Z" fill="white"/>
<path d="M39.5573 25.148C39.7462 24.9587 39.9722 24.8077 40.2221 24.7039C40.472 24.6 40.7407 24.5453 41.0126 24.543C41.2846 24.5408 41.5543 24.5909 41.8059 24.6906C42.0576 24.7902 42.2863 24.9374 42.4786 25.1235C42.6709 25.3096 42.823 25.5308 42.9259 25.7744C43.0289 26.018 43.0807 26.279 43.0784 26.5421C43.076 26.8053 43.0195 27.0654 42.9122 27.3072C42.8048 27.549 42.6488 27.7677 42.4532 27.9505C42.067 28.3115 41.5496 28.5113 41.0126 28.5068C40.4757 28.5023 39.962 28.2938 39.5823 27.9264C39.2026 27.5589 38.9872 27.0618 38.9825 26.5421C38.9778 26.0225 39.1843 25.5218 39.5573 25.148Z" fill="white"/>
<path d="M46.7965 29.3531C46.6076 29.1638 46.3816 29.0128 46.1317 28.909C45.8819 28.8051 45.6131 28.7504 45.3412 28.7481C45.0693 28.7458 44.7996 28.796 44.5479 28.8956C44.2962 28.9953 44.0675 29.1425 43.8752 29.3285C43.6829 29.5146 43.5309 29.7359 43.4279 29.9795C43.3249 30.2231 43.2731 30.4841 43.2755 30.7472C43.2778 31.0104 43.3343 31.2704 43.4417 31.5123C43.549 31.7541 43.705 31.9728 43.9006 32.1556C44.2869 32.5166 44.8042 32.7164 45.3412 32.7119C45.8782 32.7074 46.3918 32.4989 46.7716 32.1314C47.1513 31.764 47.3667 31.2669 47.3713 30.7472C47.376 30.2276 47.1696 29.7269 46.7965 29.3531Z" fill="white"/>
<path d="M39.5575 33.5567C39.7478 33.3727 39.9737 33.2267 40.2222 33.1272C40.4708 33.0277 40.7372 32.9765 41.0062 32.9766C41.2752 32.9767 41.5415 33.028 41.79 33.1277C42.0385 33.2274 42.2643 33.3735 42.4544 33.5577C42.6446 33.7418 42.7954 33.9604 42.8982 34.2009C43.0011 34.4415 43.054 34.6993 43.0539 34.9596C43.0538 35.2199 43.0007 35.4777 42.8977 35.7182C42.7946 35.9586 42.6437 36.1771 42.4534 36.3611C42.0691 36.7328 41.548 36.9414 41.0047 36.9413C40.4615 36.9411 39.9405 36.732 39.5565 36.3601C39.1725 35.9882 38.9568 35.484 38.957 34.9582C38.9572 34.4325 39.1732 33.9283 39.5575 33.5567V33.5567Z" fill="white"/>
<path d="M18.7152 32.7364H14.6191V28.7725H18.7152V24.8086H22.8112V28.7725H26.9072V32.7364H22.8112V36.7003H18.7152V32.7364Z" fill="white"/>
<path fill-rule="evenodd" clip-rule="evenodd" d="M20.7619 16.8809C16.9597 16.8809 13.3133 18.3425 10.6247 20.9443C7.93618 23.5462 6.42578 27.075 6.42578 30.7545C6.42578 34.434 7.93618 37.9628 10.6247 40.5646C13.3133 43.1664 16.9597 44.6281 20.7619 44.6281H41.242C43.1246 44.6281 44.9888 44.2692 46.7281 43.572C48.4675 42.8748 50.0479 41.8529 51.3791 40.5646C52.7103 39.2763 53.7663 37.7469 54.4868 36.0637C55.2072 34.3805 55.578 32.5764 55.578 30.7545C55.578 28.9326 55.2072 27.1285 54.4868 25.4453C53.7663 23.762 52.7103 22.2326 51.3791 20.9443C50.0479 19.6561 48.4675 18.6341 46.7281 17.9369C44.9888 17.2397 43.1246 16.8809 41.242 16.8809H20.7619ZM41.242 20.8448H20.7619C18.046 20.8448 15.4414 21.8888 13.521 23.7472C11.6007 25.6057 10.5218 28.1263 10.5218 30.7545C10.5218 33.3827 11.6007 35.9033 13.521 37.7617C15.4414 39.6201 18.046 40.6642 20.7619 40.6642H41.242C43.9578 40.6642 46.5624 39.6201 48.4828 37.7617C50.4031 35.9033 51.482 33.3827 51.482 30.7545C51.482 28.1263 50.4031 25.6057 48.4828 23.7472C46.5624 21.8888 43.9578 20.8448 41.242 20.8448V20.8448Z" fill="white"/>
</g>
<defs>
<filter id="filter0_d" x="-3.99805" y="-1.24609" width="70" height="68" filterUnits="userSpaceOnUse" color-interpolation-filters="sRGB">
<feFlood flood-opacity="0" result="BackgroundImageFix"/>
<feColorMatrix in="SourceAlpha" type="matrix" values="0 0 0 0 0 0 0 0 0 0 0 0 0 0 0 0 0 0 127 0"/>
<feOffset dy="2"/>
<feGaussianBlur stdDeviation="2"/>
<feColorMatrix type="matrix" values="0 0 0 0 0 0 0 0 0 0 0 0 0 0 0 0 0 0 0.25 0"/>
<feBlend mode="normal" in2="BackgroundImageFix" result="effect1_dropShadow"/>
<feBlend mode="normal" in="SourceGraphic" in2="effect1_dropShadow" result="shape"/>
</filter>
</defs>
</svg>
