<svg width="150" height="116" viewBox="0 0 150 116" fill="none" xmlns="http://www.w3.org/2000/svg">
<path d="M75.0981 26.8501L65.0987 27.5182C58.633 19.9466 40.5139 0.869141 22.47 0.869141C22.47 0.869141 7.65897 22.8416 22.1693 52.1629C18.0342 58.3241 15.478 61.5161 14.9517 68.865L0.441406 71.0177L2.02025 78.2923L15.2524 76.3623L16.305 81.6327L4.50129 88.6105L8.03488 95.217L18.9364 88.6105C27.5825 106.723 49.4607 115.928 75.0981 115.928C100.735 115.928 122.614 106.723 131.26 88.6105L142.161 95.217L145.695 88.6105L133.891 81.6327L134.944 76.3623L148.176 78.2923L149.755 71.0177L135.244 68.865C134.718 61.5161 132.162 58.3241 128.027 52.1629C142.537 22.8416 127.726 0.869141 127.726 0.869141C109.682 0.869141 91.5631 19.9466 85.0974 27.5182L75.0981 26.8501ZM52.5432 49.1194C54.5372 49.1194 56.4495 49.9015 57.8594 51.2936C59.2694 52.6857 60.0615 54.5738 60.0615 56.5426C60.0615 58.5113 59.2694 60.3994 57.8594 61.7915C56.4495 63.1836 54.5372 63.9657 52.5432 63.9657C50.5492 63.9657 48.6369 63.1836 47.227 61.7915C45.817 60.3994 45.0249 58.5113 45.0249 56.5426C45.0249 54.5738 45.817 52.6857 47.227 51.2936C48.6369 49.9015 50.5492 49.1194 52.5432 49.1194ZM97.653 49.1194C99.6469 49.1194 101.559 49.9015 102.969 51.2936C104.379 52.6857 105.171 54.5738 105.171 56.5426C105.171 58.5113 104.379 60.3994 102.969 61.7915C101.559 63.1836 99.6469 63.9657 97.653 63.9657C95.659 63.9657 93.7467 63.1836 92.3367 61.7915C90.9268 60.3994 90.1347 58.5113 90.1347 56.5426C90.1347 54.5738 90.9268 52.6857 92.3367 51.2936C93.7467 49.9015 95.659 49.1194 97.653 49.1194ZM67.5798 71.3888H82.6164L77.3536 81.707C78.8572 86.4578 83.0675 89.9466 88.2551 89.9466C91.2461 89.9466 94.1145 88.7735 96.2294 86.6853C98.3444 84.5972 99.5325 81.765 99.5325 78.8119H103.292C103.292 82.7494 101.707 86.5256 98.8876 89.3098C96.0677 92.094 92.243 93.6582 88.2551 93.6582C82.6164 93.6582 77.7295 90.6147 75.0981 86.2351C72.4667 90.6147 67.5798 93.6582 61.9411 93.6582C57.9531 93.6582 54.1285 92.094 51.3086 89.3098C48.4887 86.5256 46.9045 82.7494 46.9045 78.8119H50.6636C50.6636 81.765 51.8518 84.5972 53.9667 86.6853C56.0816 88.7735 58.9501 89.9466 61.9411 89.9466C67.1287 89.9466 71.3389 86.4578 72.8426 81.707L67.5798 71.3888Z" fill="white"/>
</svg>
