<svg width="1238" height="537" viewBox="0 0 1238 537" fill="none" xmlns="http://www.w3.org/2000/svg">
<g filter="url(#filter0_d)">
<rect x="229.904" y="28.248" width="987.621" height="225.451" rx="112.726" fill="#02AED9"/>
<rect x="48.082" y="220.969" width="706.292" height="213.002" rx="106.501" fill="#02AED9"/>
<rect x="493.682" y="183.588" width="522.008" height="225.451" rx="112.726" fill="#02AED9"/>
<path d="M447.489 142.315C447.969 143.659 448.305 145.195 448.497 146.923C448.785 148.555 448.929 150.235 448.929 151.963C448.929 153.691 448.785 155.419 448.497 157.147C448.305 158.779 448.017 160.219 447.633 161.467C446.097 166.843 443.025 171.355 438.417 175.003C433.809 178.555 428.529 181.147 422.577 182.779C416.721 184.411 410.625 184.987 404.289 184.507C398.049 184.027 392.481 182.443 387.585 179.755C384.513 178.027 381.873 175.915 379.665 173.419C377.457 170.923 375.585 168.139 374.049 165.067C373.473 164.011 373.089 162.811 372.897 161.467C372.801 160.027 372.945 158.683 373.329 157.435C373.713 156.091 374.337 154.939 375.201 153.979C376.065 152.923 377.265 152.203 378.801 151.819C379.761 151.627 380.817 151.531 381.969 151.531C383.217 151.531 384.417 151.723 385.569 152.107C386.721 152.395 387.777 152.923 388.737 153.691C389.697 154.363 390.465 155.323 391.041 156.571C392.097 158.587 393.585 160.459 395.505 162.187C397.521 163.819 399.633 165.163 401.841 166.219C405.009 167.275 408.177 167.707 411.345 167.515C414.609 167.323 417.537 166.603 420.129 165.355C422.817 164.107 424.977 162.427 426.609 160.315C428.241 158.107 429.057 155.611 429.057 152.827C429.057 150.523 428.721 148.651 428.049 147.211C427.377 145.675 426.417 144.427 425.169 143.467C424.017 142.411 422.577 141.547 420.849 140.875C419.217 140.203 417.393 139.627 415.377 139.147C413.073 138.667 410.721 138.331 408.321 138.139C406.017 137.947 403.665 137.707 401.265 137.419C398.865 137.131 396.513 136.747 394.209 136.267C391.905 135.787 389.649 135.067 387.441 134.107C383.025 132.283 379.665 129.499 377.361 125.755C375.057 122.011 373.665 117.979 373.185 113.659C372.801 109.339 373.329 105.067 374.769 100.843C376.209 96.5227 378.513 92.8267 381.681 89.7547C384.753 86.9707 388.401 85.0027 392.625 83.8507C396.945 82.6027 401.697 81.8827 406.881 81.6907C409.761 81.5947 412.641 81.6907 415.521 81.9787C418.497 82.2667 421.329 82.7467 424.017 83.4187C426.801 84.0907 429.345 84.9547 431.649 86.0107C434.049 87.0667 436.113 88.3147 437.841 89.7547C439.089 90.7147 440.337 92.0107 441.585 93.6427C442.833 95.1787 443.793 96.8587 444.465 98.6827C445.137 100.411 445.329 102.091 445.041 103.723C444.849 105.355 443.841 106.747 442.017 107.899C440.481 108.859 438.993 109.291 437.553 109.195C436.209 109.003 434.913 108.571 433.665 107.899C432.417 107.131 431.217 106.267 430.065 105.307C428.913 104.347 427.857 103.483 426.897 102.715C424.305 100.795 421.089 99.4987 417.249 98.8267C413.409 98.1547 409.809 98.0107 406.449 98.3947C404.337 98.6827 402.369 99.1627 400.545 99.8347C398.721 100.507 397.137 101.419 395.793 102.571C394.545 103.723 393.537 105.163 392.769 106.891C392.097 108.523 391.857 110.395 392.049 112.507C392.145 114.043 392.577 115.339 393.345 116.395C394.209 117.451 395.217 118.315 396.369 118.987C397.617 119.659 398.961 120.187 400.401 120.571C401.841 120.955 403.281 121.243 404.721 121.435C409.041 122.011 413.361 122.443 417.681 122.731C422.001 123.019 426.225 123.979 430.353 125.611C434.577 127.243 438.177 129.451 441.153 132.235C444.129 135.019 446.241 138.379 447.489 142.315ZM531.93 90.1867C532.506 94.7947 532.842 100.171 532.938 106.315C533.034 112.363 532.938 118.507 532.65 124.747C532.458 130.891 532.026 136.747 531.354 142.315C530.682 147.787 529.866 152.203 528.906 155.563C528.234 157.579 527.418 159.691 526.458 161.899C525.594 164.011 524.634 165.931 523.578 167.659C522.042 170.251 520.17 172.555 517.962 174.571C515.754 176.491 513.306 178.171 510.618 179.611C508.026 180.955 505.242 182.011 502.266 182.779C499.386 183.547 496.506 183.979 493.626 184.075C488.538 184.267 483.69 183.547 479.082 181.915C474.57 180.187 470.394 177.499 466.554 173.851C463.674 171.067 461.37 168.091 459.642 164.923C457.914 161.755 456.57 158.443 455.61 154.987C454.65 151.435 454.026 147.787 453.738 144.043C453.546 140.299 453.45 136.459 453.45 132.523C453.45 130.699 453.402 128.443 453.306 125.755C453.306 122.971 453.306 120.139 453.306 117.259C453.306 114.283 453.306 111.403 453.306 108.619C453.306 105.835 453.354 103.483 453.45 101.563C453.45 100.315 453.45 98.9707 453.45 97.5307C453.45 95.9947 453.498 94.5067 453.594 93.0667C453.786 91.5307 454.074 90.0907 454.458 88.7467C454.842 87.3067 455.418 86.0107 456.186 84.8587C457.05 83.6107 458.25 82.6987 459.786 82.1227C461.322 81.5467 462.906 81.2587 464.538 81.2587C466.266 81.2587 467.898 81.5947 469.434 82.2667C470.97 82.9387 472.218 83.8987 473.178 85.1467C473.658 85.9147 473.994 86.6827 474.186 87.4507C474.378 88.2187 474.522 89.0827 474.618 90.0427C474.81 93.2107 474.906 96.8107 474.906 100.843C475.002 104.875 475.002 108.811 474.906 112.651C474.906 116.395 474.858 119.851 474.762 123.019C474.666 126.187 474.618 128.539 474.618 130.075C474.618 135.835 474.906 141.067 475.482 145.771C476.058 150.379 477.402 154.219 479.514 157.291C481.434 160.075 483.69 161.851 486.282 162.619C488.874 163.387 491.466 163.627 494.058 163.339C496.458 163.051 498.858 162.187 501.258 160.747C503.754 159.211 505.722 157.003 507.162 154.123C507.738 153.067 508.218 151.867 508.602 150.523C508.986 149.179 509.274 147.931 509.466 146.779C509.85 143.131 510.186 138.907 510.474 134.107C510.762 129.211 511.002 124.219 511.194 119.131C511.386 114.043 511.482 109.051 511.482 104.155C511.482 99.2587 511.434 94.8427 511.338 90.9067C511.53 89.1787 512.058 87.5947 512.922 86.1547C513.69 84.9067 514.794 83.8027 516.234 82.8427C517.674 81.8827 519.642 81.4027 522.138 81.4027C524.154 81.4987 525.786 82.0267 527.034 82.9867C528.282 83.8507 529.29 84.8107 530.058 85.8667C530.922 87.1147 531.546 88.5547 531.93 90.1867ZM594.108 131.083C596.892 132.907 599.244 135.067 601.164 137.563C603.18 139.963 604.764 142.939 605.916 146.491C607.164 150.427 607.788 154.411 607.788 158.443C607.884 162.379 607.164 166.075 605.628 169.531C604.188 172.891 601.836 175.867 598.572 178.459C595.404 180.955 591.228 182.731 586.044 183.787C583.26 184.459 579.996 184.987 576.252 185.371C572.508 185.755 569.148 185.947 566.172 185.947C562.428 186.043 558.54 186.043 554.508 185.947C550.572 185.947 546.732 185.563 542.988 184.795C541.356 184.315 540.156 183.499 539.388 182.347C538.716 181.099 538.236 179.707 537.948 178.171C537.564 177.307 537.372 176.443 537.372 175.579V93.7867C537.372 91.0987 537.9 89.0347 538.956 87.5947C540.108 86.0587 541.596 84.9547 543.42 84.2827C545.244 83.5147 547.308 83.0827 549.612 82.9867C551.916 82.7947 554.316 82.6987 556.812 82.6987C558.732 82.6987 560.652 82.6987 562.572 82.6987C564.588 82.6027 566.604 82.6027 568.62 82.6987C571.788 82.7947 575.052 83.0827 578.412 83.5627C581.868 83.9467 585.132 84.7147 588.204 85.8667C589.644 86.3467 591.18 87.0187 592.812 87.8827C594.444 88.6507 595.74 89.6107 596.7 90.7627C599.772 93.5467 602.028 96.8107 603.468 100.555C605.004 104.203 605.676 107.947 605.484 111.787C605.292 115.531 604.236 119.131 602.316 122.587C600.492 126.043 597.756 128.875 594.108 131.083ZM568.908 169.243C571.884 169.051 574.908 168.715 577.98 168.235C581.052 167.755 583.164 166.843 584.316 165.499C585.564 163.963 586.428 162.187 586.908 160.171C587.484 158.059 587.628 155.947 587.34 153.835C587.148 151.627 586.524 149.563 585.468 147.643C584.508 145.627 583.212 144.043 581.58 142.891C579.372 141.163 576.828 140.059 573.948 139.579C571.068 139.003 568.236 138.715 565.452 138.715C564.108 138.715 562.86 138.763 561.708 138.859C560.652 138.859 559.692 139.003 558.828 139.291C558.06 139.483 557.484 139.915 557.1 140.587C556.716 141.259 556.524 142.267 556.524 143.611C556.716 146.107 556.716 148.603 556.524 151.099C556.332 153.595 556.236 155.995 556.236 158.299C556.236 159.643 556.188 161.131 556.092 162.763C556.092 164.299 556.62 165.595 557.676 166.651C558.732 167.707 560.268 168.427 562.284 168.811C564.3 169.195 566.508 169.339 568.908 169.243ZM571.788 100.123C568.812 100.027 566.316 99.9787 564.3 99.9787C562.38 99.8827 560.844 100.027 559.692 100.411C558.636 100.699 557.868 101.419 557.388 102.571C557.004 103.627 556.86 105.259 556.956 107.467C556.956 109.291 556.908 111.115 556.812 112.939C556.812 114.667 556.812 116.395 556.812 118.123C556.812 120.043 557.436 121.483 558.684 122.443C559.932 123.307 561.468 123.835 563.292 124.027C565.212 124.219 567.18 124.219 569.196 124.027C571.308 123.835 573.132 123.595 574.668 123.307C578.124 122.731 580.764 121.579 582.588 119.851C584.508 118.027 585.612 115.387 585.9 111.931C586.284 107.611 585.132 104.635 582.444 103.003C579.852 101.275 576.3 100.315 571.788 100.123ZM684.92 142.315C685.4 143.659 685.736 145.195 685.928 146.923C686.216 148.555 686.36 150.235 686.36 151.963C686.36 153.691 686.216 155.419 685.928 157.147C685.736 158.779 685.448 160.219 685.064 161.467C683.528 166.843 680.456 171.355 675.848 175.003C671.24 178.555 665.96 181.147 660.008 182.779C654.152 184.411 648.056 184.987 641.72 184.507C635.48 184.027 629.912 182.443 625.016 179.755C621.944 178.027 619.304 175.915 617.096 173.419C614.888 170.923 613.016 168.139 611.48 165.067C610.904 164.011 610.52 162.811 610.328 161.467C610.232 160.027 610.376 158.683 610.76 157.435C611.144 156.091 611.768 154.939 612.632 153.979C613.496 152.923 614.696 152.203 616.232 151.819C617.192 151.627 618.248 151.531 619.4 151.531C620.648 151.531 621.848 151.723 623 152.107C624.152 152.395 625.208 152.923 626.168 153.691C627.128 154.363 627.896 155.323 628.472 156.571C629.528 158.587 631.016 160.459 632.936 162.187C634.952 163.819 637.064 165.163 639.272 166.219C642.44 167.275 645.608 167.707 648.776 167.515C652.04 167.323 654.968 166.603 657.56 165.355C660.248 164.107 662.408 162.427 664.04 160.315C665.672 158.107 666.488 155.611 666.488 152.827C666.488 150.523 666.152 148.651 665.48 147.211C664.808 145.675 663.848 144.427 662.6 143.467C661.448 142.411 660.008 141.547 658.28 140.875C656.648 140.203 654.824 139.627 652.808 139.147C650.504 138.667 648.152 138.331 645.752 138.139C643.448 137.947 641.096 137.707 638.696 137.419C636.296 137.131 633.944 136.747 631.64 136.267C629.336 135.787 627.08 135.067 624.872 134.107C620.456 132.283 617.096 129.499 614.792 125.755C612.488 122.011 611.096 117.979 610.616 113.659C610.232 109.339 610.76 105.067 612.2 100.843C613.64 96.5227 615.944 92.8267 619.112 89.7547C622.184 86.9707 625.832 85.0027 630.056 83.8507C634.376 82.6027 639.128 81.8827 644.312 81.6907C647.192 81.5947 650.072 81.6907 652.952 81.9787C655.928 82.2667 658.76 82.7467 661.448 83.4187C664.232 84.0907 666.776 84.9547 669.08 86.0107C671.48 87.0667 673.544 88.3147 675.272 89.7547C676.52 90.7147 677.768 92.0107 679.016 93.6427C680.264 95.1787 681.224 96.8587 681.896 98.6827C682.568 100.411 682.76 102.091 682.472 103.723C682.28 105.355 681.272 106.747 679.448 107.899C677.912 108.859 676.424 109.291 674.984 109.195C673.64 109.003 672.344 108.571 671.096 107.899C669.848 107.131 668.648 106.267 667.496 105.307C666.344 104.347 665.288 103.483 664.328 102.715C661.736 100.795 658.52 99.4987 654.68 98.8267C650.84 98.1547 647.24 98.0107 643.88 98.3947C641.768 98.6827 639.8 99.1627 637.976 99.8347C636.152 100.507 634.568 101.419 633.224 102.571C631.976 103.723 630.968 105.163 630.2 106.891C629.528 108.523 629.288 110.395 629.48 112.507C629.576 114.043 630.008 115.339 630.776 116.395C631.64 117.451 632.648 118.315 633.8 118.987C635.048 119.659 636.392 120.187 637.832 120.571C639.272 120.955 640.712 121.243 642.152 121.435C646.472 122.011 650.792 122.443 655.112 122.731C659.432 123.019 663.656 123.979 667.784 125.611C672.008 127.243 675.608 129.451 678.584 132.235C681.56 135.019 683.672 138.379 684.92 142.315ZM769.361 90.1867C769.937 94.7947 770.273 100.171 770.369 106.315C770.465 112.363 770.369 118.507 770.081 124.747C769.889 130.891 769.457 136.747 768.785 142.315C768.113 147.787 767.297 152.203 766.337 155.563C765.665 157.579 764.849 159.691 763.889 161.899C763.025 164.011 762.065 165.931 761.009 167.659C759.473 170.251 757.601 172.555 755.393 174.571C753.185 176.491 750.737 178.171 748.049 179.611C745.457 180.955 742.673 182.011 739.697 182.779C736.817 183.547 733.937 183.979 731.057 184.075C725.969 184.267 721.121 183.547 716.513 181.915C712.001 180.187 707.825 177.499 703.985 173.851C701.105 171.067 698.801 168.091 697.073 164.923C695.345 161.755 694.001 158.443 693.041 154.987C692.081 151.435 691.457 147.787 691.169 144.043C690.977 140.299 690.881 136.459 690.881 132.523C690.881 130.699 690.833 128.443 690.737 125.755C690.737 122.971 690.737 120.139 690.737 117.259C690.737 114.283 690.737 111.403 690.737 108.619C690.737 105.835 690.785 103.483 690.881 101.563C690.881 100.315 690.881 98.9707 690.881 97.5307C690.881 95.9947 690.929 94.5067 691.025 93.0667C691.217 91.5307 691.505 90.0907 691.889 88.7467C692.273 87.3067 692.849 86.0107 693.617 84.8587C694.481 83.6107 695.681 82.6987 697.217 82.1227C698.753 81.5467 700.337 81.2587 701.969 81.2587C703.697 81.2587 705.329 81.5947 706.865 82.2667C708.401 82.9387 709.649 83.8987 710.609 85.1467C711.089 85.9147 711.425 86.6827 711.617 87.4507C711.809 88.2187 711.953 89.0827 712.049 90.0427C712.241 93.2107 712.337 96.8107 712.337 100.843C712.433 104.875 712.433 108.811 712.337 112.651C712.337 116.395 712.289 119.851 712.193 123.019C712.097 126.187 712.049 128.539 712.049 130.075C712.049 135.835 712.337 141.067 712.913 145.771C713.489 150.379 714.833 154.219 716.945 157.291C718.865 160.075 721.121 161.851 723.713 162.619C726.305 163.387 728.897 163.627 731.489 163.339C733.889 163.051 736.289 162.187 738.689 160.747C741.185 159.211 743.153 157.003 744.593 154.123C745.169 153.067 745.649 151.867 746.033 150.523C746.417 149.179 746.705 147.931 746.897 146.779C747.281 143.131 747.617 138.907 747.905 134.107C748.193 129.211 748.433 124.219 748.625 119.131C748.817 114.043 748.913 109.051 748.913 104.155C748.913 99.2587 748.865 94.8427 748.769 90.9067C748.961 89.1787 749.489 87.5947 750.353 86.1547C751.121 84.9067 752.225 83.8027 753.665 82.8427C755.105 81.8827 757.073 81.4027 759.569 81.4027C761.585 81.4987 763.217 82.0267 764.465 82.9867C765.713 83.8507 766.721 84.8107 767.489 85.8667C768.353 87.1147 768.977 88.5547 769.361 90.1867ZM856.373 173.275C856.277 174.907 856.037 176.635 855.653 178.459C855.365 180.283 854.453 181.771 852.917 182.923C851.765 183.883 850.469 184.459 849.029 184.651C847.589 184.843 846.149 184.747 844.709 184.363C843.365 184.075 842.069 183.595 840.821 182.923C839.573 182.155 838.565 181.243 837.797 180.187C834.533 176.155 831.509 172.027 828.725 167.803C826.037 163.483 823.301 159.163 820.517 154.843L808.421 136.555C806.789 133.963 805.061 131.083 803.237 127.915C801.413 124.651 799.541 121.627 797.621 118.843L797.189 173.851V175.147C797.189 176.683 796.901 178.219 796.325 179.755C795.845 181.195 794.981 182.443 793.733 183.499C792.773 184.267 791.525 184.795 789.989 185.083C787.589 185.563 785.573 185.419 783.941 184.651C782.405 183.883 781.157 182.827 780.197 181.483C779.333 180.139 778.709 178.603 778.325 176.875C778.037 175.051 777.989 173.275 778.181 171.547V169.099L778.469 157.867L778.613 136.987C778.709 133.915 778.757 130.795 778.757 127.627C778.757 124.363 778.757 121.051 778.757 117.691C778.661 113.563 778.661 109.195 778.757 104.587C778.949 99.9787 779.141 95.6587 779.333 91.6267C779.525 89.4187 780.053 87.5467 780.917 86.0107C781.301 84.6667 782.309 83.5147 783.941 82.5547C784.997 81.8827 786.341 81.4507 787.973 81.2587C789.701 81.0667 791.189 81.1147 792.437 81.4027C792.917 81.5947 793.397 81.8347 793.877 82.1227C794.357 82.3147 794.837 82.5547 795.317 82.8427C795.797 83.2267 796.229 83.6107 796.613 83.9947C797.093 84.3787 797.525 84.8107 797.909 85.2907C798.389 85.7707 798.821 86.2987 799.205 86.8747C799.589 87.3547 799.973 87.8347 800.357 88.3147C800.645 88.8907 800.933 89.4187 801.221 89.8987C801.509 90.3787 801.845 90.8587 802.229 91.3387L803.813 93.6427L837.077 146.059V136.555C837.077 133.483 837.029 130.363 836.933 127.195C836.933 123.931 836.885 120.571 836.789 117.115C836.789 113.083 836.789 108.763 836.789 104.155C836.885 99.5467 837.029 95.2267 837.221 91.1947C837.221 89.5627 837.701 87.6907 838.661 85.5787C839.141 84.3307 839.957 83.3227 841.109 82.5547C842.261 81.7867 843.557 81.2587 844.997 80.9707C846.437 80.6827 847.877 80.6827 849.317 80.9707C850.757 81.2587 852.005 81.8347 853.061 82.6987C853.349 82.9867 853.637 83.3227 853.925 83.7067C854.213 84.0907 854.453 84.5227 854.645 85.0027C855.125 86.2507 855.413 87.3547 855.509 88.3147C855.797 89.6587 855.941 90.8587 855.941 91.9147C855.941 103.915 855.941 116.155 855.941 128.635C856.037 141.115 856.133 153.355 856.229 165.355C856.229 166.699 856.277 168.043 856.373 169.387C856.469 170.635 856.469 171.931 856.373 173.275ZM936.581 126.331C936.773 129.499 936.725 132.763 936.437 136.123C936.245 139.483 935.909 142.747 935.429 145.915C934.469 151.387 932.693 156.715 930.101 161.899C927.509 167.083 923.717 171.499 918.725 175.147C913.541 178.987 907.637 181.627 901.013 183.067C894.389 184.411 887.813 185.227 881.285 185.515C879.077 185.707 876.821 185.755 874.517 185.659C872.309 185.659 870.149 185.419 868.037 184.939C866.309 184.651 865.013 184.123 864.149 183.355C863.669 183.067 863.285 182.683 862.997 182.203C862.709 181.723 862.469 181.243 862.277 180.763C861.989 180.283 861.749 179.803 861.557 179.323C861.461 178.747 861.317 178.171 861.125 177.595C861.029 177.115 860.933 176.683 860.837 176.299C860.837 175.819 860.837 175.387 860.837 175.003V92.7787C860.837 92.1067 860.837 91.4827 860.837 90.9067C860.837 90.3307 860.933 89.7547 861.125 89.1787C861.317 87.8347 861.605 86.7307 861.989 85.8667C862.373 84.7147 862.901 83.8987 863.573 83.4187C864.149 82.9387 864.725 82.6027 865.301 82.4107C865.877 82.1227 866.405 81.8827 866.885 81.6907C867.461 81.4987 868.037 81.4987 868.613 81.6907C869.285 81.7867 870.005 81.6427 870.773 81.2587L894.821 81.8347C901.157 82.0267 906.821 83.5147 911.813 86.2987C916.805 88.9867 921.077 92.4427 924.629 96.6667C928.181 100.891 930.965 105.643 932.981 110.923C934.997 116.107 936.197 121.243 936.581 126.331ZM909.797 153.691C911.621 150.811 912.965 147.499 913.829 143.755C914.693 140.011 915.077 136.219 914.981 132.379C914.885 128.443 914.357 124.651 913.397 121.003C912.437 117.259 911.093 113.947 909.365 111.067C908.021 108.955 906.293 107.227 904.181 105.883C902.069 104.539 899.717 103.531 897.125 102.859C894.533 102.091 891.749 101.563 888.773 101.275C885.893 100.987 883.061 100.843 880.277 100.843C880.373 103.627 880.421 106.315 880.421 108.907C880.421 111.499 880.421 114.235 880.421 117.115C880.325 120.571 880.277 123.931 880.277 127.195C880.277 130.459 880.277 133.627 880.277 136.699V166.075C883.253 165.979 886.085 165.835 888.773 165.643C891.557 165.355 894.197 164.779 896.693 163.915C899.285 163.051 901.637 161.851 903.749 160.315C905.957 158.683 907.973 156.475 909.797 153.691ZM1022.92 174.427C1023.02 175.003 1023.07 175.579 1023.07 176.155C1023.16 176.635 1023.21 177.211 1023.21 177.883C1023.21 179.035 1022.87 180.091 1022.2 181.051C1021.91 181.531 1021.53 182.011 1021.05 182.491C1020.57 182.875 1019.99 183.211 1019.32 183.499C1016.92 184.843 1014.38 185.323 1011.69 184.939C1010.35 184.555 1009.15 183.931 1008.09 183.067C1007.9 182.875 1007.75 182.779 1007.66 182.779C1007.56 182.683 1007.47 182.539 1007.37 182.347C1007.27 182.251 1007.18 182.155 1007.08 182.059C1006.99 181.867 1006.84 181.723 1006.65 181.627C1006.17 181.147 1005.79 180.715 1005.5 180.331C1005.21 179.851 1004.92 179.371 1004.63 178.891C1004.44 178.411 1004.2 177.979 1003.91 177.595C1003.72 177.115 1003.48 176.635 1003.19 176.155C1003 175.771 1002.81 175.435 1002.62 175.147C1002.43 174.763 1002.28 174.379 1002.19 173.995C1001.8 173.131 1001.56 172.363 1001.47 171.691L998.443 164.635C991.819 164.635 985.195 164.683 978.571 164.779C972.043 164.779 965.467 164.731 958.843 164.635L955.819 171.691C955.627 172.075 955.483 172.459 955.387 172.843C955.387 173.227 955.291 173.611 955.099 173.995C954.907 174.379 954.715 174.763 954.523 175.147C954.427 175.435 954.283 175.771 954.091 176.155C953.803 176.635 953.515 177.115 953.227 177.595C953.035 177.979 952.795 178.411 952.507 178.891C952.315 179.371 952.075 179.851 951.787 180.331C951.499 180.715 951.115 181.147 950.635 181.627C950.443 181.723 950.299 181.867 950.203 182.059C950.107 182.155 950.011 182.251 949.915 182.347C949.819 182.539 949.723 182.683 949.627 182.779C949.531 182.779 949.387 182.875 949.195 183.067C948.139 183.931 946.939 184.555 945.595 184.939C942.907 185.323 940.363 184.843 937.963 183.499C937.291 183.211 936.715 182.875 936.235 182.491C935.755 182.011 935.371 181.531 935.083 181.051C934.411 180.091 934.075 179.035 934.075 177.883C934.075 177.211 934.075 176.635 934.075 176.155C934.171 175.579 934.267 175.003 934.363 174.427C934.555 173.563 934.795 172.699 935.083 171.835C935.371 170.971 935.515 170.539 935.515 170.539L965.467 96.8107L966.331 94.5067C966.523 93.9307 966.763 93.4027 967.051 92.9227C967.339 92.4427 967.579 91.8667 967.771 91.1947C968.251 89.9467 968.779 88.8427 969.355 87.8827C969.643 87.3067 969.979 86.7787 970.363 86.2987C970.747 85.8187 971.131 85.3387 971.515 84.8587C972.091 84.0907 972.907 83.4667 973.963 82.9867C975.307 82.5067 976.843 82.2667 978.571 82.2667C980.395 82.2667 981.979 82.5067 983.323 82.9867C984.379 83.4667 985.195 84.0907 985.771 84.8587C986.443 85.7227 987.163 86.7307 987.931 87.8827C988.507 88.8427 989.035 89.9467 989.515 91.1947C989.707 91.8667 989.947 92.4427 990.235 92.9227C990.523 93.4027 990.763 93.9307 990.955 94.5067L991.819 96.8107L1021.77 170.539C1021.77 170.539 1021.91 170.971 1022.2 171.835C1022.49 172.699 1022.73 173.563 1022.92 174.427ZM988.795 139.147C987.547 136.363 986.251 133.483 984.907 130.507C983.659 127.531 982.315 124.507 980.875 121.435C980.491 120.571 980.107 119.707 979.723 118.843C979.339 117.883 978.955 116.971 978.571 116.107C978.283 116.971 977.947 117.883 977.563 118.843C977.179 119.707 976.795 120.571 976.411 121.435C974.971 124.507 973.579 127.531 972.235 130.507C970.987 133.483 969.739 136.363 968.491 139.147L965.899 145.483H991.387L988.795 139.147ZM1090.69 88.4587C1090.79 88.9387 1090.79 89.4187 1090.69 89.8987C1090.69 90.3787 1090.55 90.9067 1090.26 91.4827C1089.87 92.8267 1089.44 94.0267 1088.96 95.0827C1088.39 96.4267 1087.67 97.5787 1086.8 98.5387C1086.42 99.1147 1086.03 99.6907 1085.65 100.267C1085.36 100.747 1085.07 101.227 1084.79 101.707L1082.91 104.155L1064.48 130.795L1061.17 134.971V173.275C1060.98 173.755 1060.88 174.235 1060.88 174.715C1060.88 175.195 1060.83 175.723 1060.74 176.299C1060.55 176.779 1060.4 177.259 1060.31 177.739C1060.21 178.123 1060.07 178.555 1059.87 179.035C1059.68 179.419 1059.59 179.707 1059.59 179.899C1059.49 180.091 1059.39 180.235 1059.3 180.331C1059.3 180.427 1059.25 180.571 1059.15 180.763C1058.58 181.723 1057.76 182.587 1056.71 183.355C1054.59 184.411 1052.19 184.651 1049.51 184.075C1047.97 183.883 1046.82 183.403 1046.05 182.635C1045.57 182.347 1045.19 182.011 1044.9 181.627C1044.61 181.243 1044.32 180.811 1044.03 180.331C1043.84 179.755 1043.65 179.227 1043.46 178.747C1043.27 178.267 1043.12 177.787 1043.03 177.307C1042.83 176.827 1042.74 176.395 1042.74 176.011C1042.74 175.531 1042.74 175.099 1042.74 174.715V135.403L1039.57 130.507L1020.85 104.011L1019.27 101.419C1018.69 100.555 1017.97 99.5467 1017.11 98.3947C1016.34 97.3387 1015.67 96.1867 1015.09 94.9387C1014.71 94.3627 1014.37 93.7867 1014.08 93.2107C1013.89 92.5387 1013.7 91.8667 1013.51 91.1947C1013.22 90.2347 1013.17 89.2747 1013.36 88.3147C1013.65 87.0667 1014.23 86.0107 1015.09 85.1467C1016.05 84.2827 1017.06 83.6107 1018.11 83.1307C1019.46 82.1707 1020.99 81.7867 1022.72 81.9787C1023.78 81.9787 1024.69 82.1707 1025.46 82.5547C1026.23 82.9387 1026.99 83.3707 1027.76 83.8507C1028.63 84.5227 1029.44 85.2427 1030.21 86.0107C1031.07 86.7787 1031.84 87.5947 1032.51 88.4587C1033.28 89.4187 1034 90.3307 1034.67 91.1947C1035.35 91.9627 1036.02 92.8747 1036.69 93.9307L1037.12 94.5067C1039.43 97.5787 1041.59 100.555 1043.6 103.435C1045.62 106.219 1047.73 109.243 1049.94 112.507C1050.13 112.699 1050.42 113.083 1050.8 113.659C1051.19 114.235 1051.62 114.907 1052.1 115.675C1052.48 115.003 1052.82 114.427 1053.11 113.947C1053.49 113.371 1053.78 112.987 1053.97 112.795C1056.18 109.531 1058.29 106.459 1060.31 103.579C1062.32 100.699 1064.48 97.7227 1066.79 94.6507L1067.07 94.0747C1067.84 93.2107 1068.51 92.3467 1069.09 91.4827C1069.76 90.5227 1070.48 89.5627 1071.25 88.6027C1072.5 86.8747 1074.18 85.3867 1076.29 84.1387C1077.83 83.0827 1079.41 82.4107 1081.04 82.1227C1082.87 81.9307 1084.45 82.3147 1085.79 83.2747C1086.37 83.6587 1086.9 83.9947 1087.38 84.2827C1087.95 84.5707 1088.43 84.9067 1088.82 85.2907C1089.59 86.1547 1090.21 87.2107 1090.69 88.4587Z" fill="white"/>
<path d="M267.093 275.429C267.573 277.637 267.621 279.893 267.237 282.197C266.949 284.405 266.517 286.421 265.941 288.245C264.789 291.989 263.445 296.165 261.909 300.773C260.373 305.381 258.837 309.989 257.301 314.597C255.765 319.205 254.277 323.573 252.837 327.701C251.397 331.733 250.197 335.093 249.237 337.781C248.277 340.277 247.269 343.109 246.213 346.277C245.157 349.445 243.861 352.565 242.325 355.637C240.885 358.613 239.157 361.349 237.141 363.845C235.221 366.341 232.869 368.165 230.085 369.317C227.301 370.469 224.757 370.757 222.453 370.181C220.149 369.509 218.085 368.357 216.261 366.725C214.437 364.997 212.757 362.885 211.221 360.389C209.781 357.797 208.485 355.157 207.333 352.469C206.181 349.781 205.125 347.189 204.165 344.693C203.205 342.101 202.341 339.893 201.573 338.069C198.597 331.541 195.909 324.629 193.509 317.333C191.109 310.037 188.661 303.077 186.165 296.453C185.493 294.533 184.725 292.229 183.861 289.541C182.997 286.757 182.421 284.021 182.133 281.333C181.941 278.549 182.277 276.053 183.141 273.845C184.005 271.541 185.829 269.957 188.613 269.093C189.189 268.901 189.765 268.757 190.341 268.661C191.013 268.469 191.637 268.325 192.213 268.229C192.885 268.229 193.509 268.277 194.085 268.373C194.661 268.469 195.285 268.709 195.957 269.093C196.437 269.285 196.917 269.525 197.397 269.813C197.877 270.005 198.309 270.293 198.693 270.677C199.077 271.157 199.413 271.637 199.701 272.117C200.085 272.597 200.469 273.077 200.853 273.557C201.141 274.229 201.381 274.853 201.573 275.429C201.861 275.909 202.101 276.389 202.293 276.869C202.485 277.541 202.725 278.165 203.013 278.741C203.301 279.221 203.541 279.701 203.733 280.181L204.597 282.629L225.333 341.813L245.781 282.773L246.789 280.325C246.981 279.845 247.173 279.365 247.365 278.885C247.557 278.309 247.749 277.685 247.941 277.013C248.133 276.533 248.325 276.053 248.517 275.573C248.805 274.997 249.141 274.421 249.525 273.845C249.813 273.365 250.101 272.885 250.389 272.405C250.773 271.829 251.157 271.301 251.541 270.821C251.829 270.437 252.165 270.101 252.549 269.813C253.029 269.525 253.461 269.285 253.845 269.093C254.613 268.709 255.285 268.469 255.861 268.373C256.533 268.277 257.109 268.229 257.589 268.229C258.165 268.325 258.741 268.469 259.317 268.661C259.989 268.757 260.613 268.901 261.189 269.093C263.013 269.573 264.357 270.389 265.221 271.541C266.181 272.693 266.805 273.989 267.093 275.429ZM297.308 271.973C303.74 269.573 309.548 268.517 314.732 268.805C320.012 269.093 324.716 270.437 328.844 272.837C332.972 275.141 336.476 278.261 339.356 282.197C342.332 286.133 344.732 290.549 346.556 295.445C347.996 299.093 349.1 302.933 349.868 306.965C350.636 310.997 351.068 315.029 351.164 319.061C351.356 322.997 351.212 326.885 350.732 330.725C350.348 334.565 349.676 338.117 348.716 341.381C348.14 343.589 347.468 345.605 346.7 347.429C345.932 349.253 345.02 351.077 343.964 352.901C341.564 357.029 338.444 360.389 334.604 362.981C330.86 365.573 326.732 367.397 322.22 368.453C319.148 369.221 315.98 369.605 312.716 369.605C309.452 369.509 306.236 369.077 303.068 368.309C299.9 367.445 296.828 366.245 293.852 364.709C290.972 363.077 288.332 361.061 285.932 358.661C282.956 355.781 280.508 352.469 278.588 348.725C276.668 344.885 275.18 340.901 274.124 336.773C273.068 332.549 272.396 328.325 272.108 324.101C271.82 319.877 271.82 315.845 272.108 312.005C272.396 308.453 273.068 304.661 274.124 300.629C275.276 296.597 276.908 292.709 279.02 288.965C281.132 285.221 283.676 281.861 286.652 278.885C289.724 275.813 293.276 273.509 297.308 271.973ZM331.004 333.605C332.156 329.093 332.636 324.005 332.444 318.341C332.252 312.677 331.34 307.349 329.708 302.357C328.652 299.285 327.308 296.597 325.676 294.293C324.14 291.893 322.268 290.069 320.06 288.821C317.948 287.573 315.452 286.949 312.572 286.949C309.692 286.949 306.476 287.813 302.924 289.541C300.812 290.597 298.988 292.037 297.452 293.861C296.012 295.685 294.812 297.749 293.852 300.053C292.988 302.357 292.268 304.757 291.692 307.253C291.212 309.749 290.924 312.149 290.828 314.453C290.636 316.949 290.588 319.589 290.684 322.373C290.78 325.061 291.068 327.797 291.548 330.581C292.124 333.269 292.892 335.861 293.852 338.357C294.812 340.757 296.108 342.917 297.74 344.837C300.236 347.717 303.116 349.733 306.38 350.885C309.74 351.941 313.052 352.085 316.316 351.317C321.596 350.165 325.628 346.661 328.412 340.805C329.564 338.693 330.428 336.293 331.004 333.605ZM428.061 272.981C429.117 274.229 429.645 275.525 429.645 276.869C429.645 277.445 429.597 278.069 429.501 278.741C429.501 279.317 429.453 279.845 429.357 280.325C429.069 281.381 428.445 282.389 427.485 283.349C426.717 283.925 425.661 284.357 424.317 284.645C423.645 284.837 422.973 284.981 422.301 285.077C421.629 285.173 420.909 285.317 420.141 285.509C419.469 285.605 418.797 285.653 418.125 285.653C417.453 285.653 416.733 285.653 415.965 285.653H408.621C406.893 285.749 405.165 285.797 403.437 285.797C401.805 285.797 400.173 285.797 398.541 285.797C398.637 288.773 398.685 291.989 398.685 295.445C398.685 298.805 398.637 302.741 398.541 307.253C398.541 311.765 398.493 316.997 398.397 322.949C398.397 328.901 398.397 335.813 398.397 343.685V354.629C398.397 355.589 398.445 356.309 398.541 356.789C398.541 357.173 398.541 357.557 398.541 357.941C398.541 358.229 398.493 358.613 398.397 359.093C398.205 359.957 398.061 360.965 397.965 362.117C397.965 362.597 397.917 363.077 397.821 363.557C397.725 363.941 397.581 364.373 397.389 364.853C397.005 365.237 396.813 365.525 396.813 365.717L396.381 366.581C395.901 367.541 394.989 368.453 393.645 369.317C391.533 370.373 389.181 370.613 386.589 370.037C384.957 369.845 383.709 369.413 382.845 368.741C381.981 367.877 381.357 367.013 380.973 366.149C380.397 365.093 380.061 364.085 379.965 363.125C379.677 362.261 379.533 361.349 379.533 360.389V286.373C378.957 286.373 377.757 286.373 375.933 286.373C374.109 286.373 372.141 286.373 370.029 286.373C368.013 286.277 366.093 286.181 364.269 286.085C362.445 285.989 361.197 285.893 360.525 285.797C359.949 285.701 359.037 285.557 357.789 285.365C356.637 285.173 355.677 284.981 354.909 284.789C352.893 284.213 351.309 283.301 350.157 282.053C349.101 280.805 348.573 279.413 348.573 277.877C348.573 277.301 348.573 276.725 348.573 276.149C348.573 275.573 348.669 275.045 348.861 274.565C349.149 273.413 349.917 272.453 351.165 271.685C351.549 271.397 352.125 271.061 352.893 270.677C353.757 270.197 354.573 269.861 355.341 269.669C356.493 269.285 357.933 268.997 359.661 268.805C360.429 268.709 361.197 268.661 361.965 268.661C362.733 268.661 363.549 268.661 364.413 268.661C367.773 268.661 370.941 268.661 373.917 268.661C376.989 268.661 380.205 268.613 383.565 268.517C389.133 268.421 394.653 268.421 400.125 268.517C405.693 268.517 411.213 268.613 416.685 268.805C417.933 268.901 419.133 269.045 420.285 269.237C421.437 269.429 422.589 269.765 423.741 270.245C424.605 270.533 425.421 270.917 426.189 271.397C426.957 271.781 427.581 272.309 428.061 272.981ZM432.603 355.205L432.747 343.829L432.891 322.661C432.987 319.589 433.035 316.421 433.035 313.157C433.035 309.893 433.035 306.533 433.035 303.077C433.035 299.621 433.035 296.549 433.035 293.861C433.035 291.173 433.131 288.149 433.323 284.789V284.213C433.419 283.253 433.467 282.293 433.467 281.333C433.563 280.277 433.611 279.221 433.611 278.165C433.707 276.437 434.235 274.565 435.195 272.549C435.867 271.205 436.875 270.053 438.219 269.093C439.755 268.325 441.243 267.941 442.683 267.941C443.451 267.941 444.123 267.989 444.699 268.085C445.371 268.085 445.995 268.133 446.571 268.229C447.819 268.421 448.923 268.997 449.883 269.957C450.459 270.437 450.987 271.205 451.467 272.261C451.659 272.837 451.803 273.413 451.899 273.989C452.091 274.469 452.235 274.997 452.331 275.573C452.427 276.245 452.475 276.869 452.475 277.445C452.571 278.021 452.619 278.597 452.619 279.173C452.619 279.845 452.571 280.469 452.475 281.045C452.475 281.525 452.475 282.053 452.475 282.629V285.077L451.611 359.813V361.253C451.611 361.541 451.563 361.925 451.467 362.405C451.467 362.789 451.419 363.269 451.323 363.845C451.131 364.325 450.939 364.853 450.747 365.429C450.651 365.909 450.507 366.437 450.315 367.013C450.027 367.493 449.691 367.973 449.307 368.453C449.019 368.837 448.635 369.221 448.155 369.605C447.387 370.373 446.139 370.901 444.411 371.189C441.819 371.765 439.371 371.525 437.067 370.469C435.915 369.701 435.099 368.741 434.619 367.589C434.331 367.301 434.187 367.013 434.187 366.725C434.091 366.533 433.995 366.389 433.899 366.293C433.803 366.197 433.707 366.053 433.611 365.861C433.419 365.381 433.275 364.901 433.179 364.421C433.083 363.845 433.035 363.269 433.035 362.693C432.939 362.213 432.843 361.733 432.747 361.253C432.747 360.773 432.699 360.293 432.603 359.813C432.507 359.045 432.507 358.229 432.603 357.365V355.205ZM539.634 359.525C539.538 361.157 539.298 362.885 538.914 364.709C538.626 366.533 537.714 368.021 536.178 369.173C535.026 370.133 533.73 370.709 532.29 370.901C530.85 371.093 529.41 370.997 527.97 370.613C526.626 370.325 525.33 369.845 524.082 369.173C522.834 368.405 521.826 367.493 521.058 366.437C517.794 362.405 514.77 358.277 511.986 354.053C509.298 349.733 506.562 345.413 503.778 341.093L491.682 322.805C490.05 320.213 488.322 317.333 486.498 314.165C484.674 310.901 482.802 307.877 480.882 305.093L480.45 360.101V361.397C480.45 362.933 480.162 364.469 479.586 366.005C479.106 367.445 478.242 368.693 476.994 369.749C476.034 370.517 474.786 371.045 473.25 371.333C470.85 371.813 468.834 371.669 467.202 370.901C465.666 370.133 464.418 369.077 463.458 367.733C462.594 366.389 461.97 364.853 461.586 363.125C461.298 361.301 461.25 359.525 461.442 357.797V355.349L461.73 344.117L461.874 323.237C461.97 320.165 462.018 317.045 462.018 313.877C462.018 310.613 462.018 307.301 462.018 303.941C461.922 299.813 461.922 295.445 462.018 290.837C462.21 286.229 462.402 281.909 462.594 277.877C462.786 275.669 463.314 273.797 464.178 272.261C464.562 270.917 465.57 269.765 467.202 268.805C468.258 268.133 469.602 267.701 471.234 267.509C472.962 267.317 474.45 267.365 475.698 267.653C476.178 267.845 476.658 268.085 477.138 268.373C477.618 268.565 478.098 268.805 478.578 269.093C479.058 269.477 479.49 269.861 479.874 270.245C480.354 270.629 480.786 271.061 481.17 271.541C481.65 272.021 482.082 272.549 482.466 273.125C482.85 273.605 483.234 274.085 483.618 274.565C483.906 275.141 484.194 275.669 484.482 276.149C484.77 276.629 485.106 277.109 485.49 277.589L487.074 279.893L520.338 332.309V322.805C520.338 319.733 520.29 316.613 520.194 313.445C520.194 310.181 520.146 306.821 520.05 303.365C520.05 299.333 520.05 295.013 520.05 290.405C520.146 285.797 520.29 281.477 520.482 277.445C520.482 275.813 520.962 273.941 521.922 271.829C522.402 270.581 523.218 269.573 524.37 268.805C525.522 268.037 526.818 267.509 528.258 267.221C529.698 266.933 531.138 266.933 532.578 267.221C534.018 267.509 535.266 268.085 536.322 268.949C536.61 269.237 536.898 269.573 537.186 269.957C537.474 270.341 537.714 270.773 537.906 271.253C538.386 272.501 538.674 273.605 538.77 274.565C539.058 275.909 539.202 277.109 539.202 278.165C539.202 290.165 539.202 302.405 539.202 314.885C539.298 327.365 539.394 339.605 539.49 351.605C539.49 352.949 539.538 354.293 539.634 355.637C539.73 356.885 539.73 358.181 539.634 359.525ZM620.274 336.197C620.274 339.077 620.13 342.005 619.842 344.981C619.554 347.861 618.978 350.693 618.114 353.477C617.25 356.165 615.954 358.757 614.226 361.253C612.498 363.653 610.146 365.765 607.17 367.589C605.73 368.549 604.002 369.365 601.986 370.037C600.066 370.613 598.002 371.093 595.794 371.477C593.682 371.957 591.57 372.245 589.458 372.341C587.346 372.533 585.378 372.581 583.554 372.485C574.914 372.197 567.906 370.133 562.53 366.293C557.25 362.357 553.17 357.509 550.29 351.749C547.506 345.989 545.682 339.749 544.818 333.029C544.05 326.213 543.906 319.733 544.386 313.589C544.674 309.941 545.298 306.005 546.258 301.781C547.314 297.557 548.802 293.477 550.722 289.541C552.738 285.605 555.186 282.053 558.066 278.885C561.042 275.717 564.546 273.317 568.578 271.685C572.322 270.149 576.402 269.189 580.818 268.805C585.33 268.325 589.746 268.469 594.066 269.237C598.482 270.005 602.562 271.397 606.306 273.413C610.146 275.429 613.17 278.117 615.378 281.477C616.914 283.973 618.114 286.997 618.978 290.549C619.842 294.101 619.986 297.509 619.41 300.773C618.93 303.653 617.922 305.669 616.386 306.821C614.85 307.877 613.17 308.309 611.346 308.117C609.522 307.829 607.746 307.061 606.018 305.813C604.386 304.469 603.282 302.789 602.706 300.773C602.034 298.565 601.218 296.549 600.258 294.725C599.298 292.805 597.81 291.221 595.794 289.973C593.49 288.533 591.042 287.717 588.45 287.525C585.954 287.333 583.506 287.621 581.106 288.389C578.802 289.157 576.594 290.357 574.482 291.989C572.466 293.621 570.786 295.493 569.442 297.605C567.81 300.005 566.562 302.645 565.698 305.525C564.834 308.309 564.21 311.237 563.826 314.309C563.442 317.285 563.298 320.309 563.394 323.381C563.586 326.357 563.97 329.237 564.546 332.021C565.602 336.725 567.234 341.141 569.442 345.269C570.306 346.805 571.458 348.197 572.898 349.445C574.434 350.597 576.114 351.557 577.938 352.325C579.762 352.997 581.682 353.429 583.698 353.621C585.714 353.813 587.634 353.669 589.458 353.189C592.05 352.517 594.162 351.653 595.794 350.597C597.426 349.445 598.722 348.101 599.682 346.565C600.642 345.029 601.266 343.349 601.554 341.525C601.938 339.701 602.13 337.781 602.13 335.765V335.621C600.882 335.621 599.778 335.621 598.818 335.621C597.858 335.525 597.138 335.477 596.658 335.477C594.546 335.477 592.482 335.093 590.466 334.325C588.738 333.749 587.442 332.837 586.578 331.589C585.618 330.533 585.138 329.237 585.138 327.701C585.138 327.125 585.138 326.597 585.138 326.117C585.234 325.541 585.33 324.965 585.426 324.389C585.714 323.621 586.338 322.661 587.298 321.509C587.874 321.029 588.786 320.645 590.034 320.357C590.61 320.165 591.186 320.021 591.762 319.925C592.338 319.733 593.01 319.589 593.778 319.493C594.354 319.397 594.978 319.349 595.65 319.349C596.322 319.349 596.994 319.349 597.666 319.349H610.77C611.826 319.253 613.026 319.397 614.37 319.781C615.81 320.069 616.914 320.549 617.682 321.221C617.97 321.605 618.258 321.989 618.546 322.373C618.834 322.757 619.074 323.189 619.266 323.669C619.65 324.725 619.89 325.781 619.986 326.837C620.082 327.413 620.13 328.037 620.13 328.709C620.226 329.285 620.274 329.813 620.274 330.293V336.197Z" fill="white"/>
<path d="M772.069 251.547C772.165 252.219 772.213 252.843 772.213 253.419C772.213 253.995 772.213 254.571 772.213 255.147V261.051L771.349 335.787V337.227C771.349 337.803 771.205 338.667 770.917 339.819C770.821 340.299 770.677 340.827 770.485 341.403C770.293 341.883 770.101 342.411 769.909 342.987C769.429 344.139 768.757 345.003 767.893 345.579C767.125 346.347 765.877 346.875 764.149 347.163C761.461 347.739 759.013 347.499 756.805 346.443C755.557 345.675 754.693 344.715 754.213 343.563C754.021 343.371 753.829 343.083 753.637 342.699C753.637 342.507 753.541 342.219 753.349 341.835C753.157 341.355 753.013 340.875 752.917 340.395C752.821 339.819 752.725 339.243 752.629 338.667C752.629 338.187 752.581 337.707 752.485 337.227C752.485 336.747 752.437 336.267 752.341 335.787C752.149 335.307 752.053 334.923 752.053 334.635C752.053 334.251 752.053 333.819 752.053 333.339C752.245 332.955 752.341 332.235 752.341 331.179L752.485 319.803L752.629 301.659H744.853L715.621 301.803L715.333 335.787V337.227C715.333 337.803 715.189 338.667 714.901 339.819C714.805 340.299 714.661 340.827 714.469 341.403C714.277 341.883 714.085 342.411 713.893 342.987C713.413 344.139 712.741 345.003 711.877 345.579C711.109 346.347 709.861 346.875 708.133 347.163C705.445 347.739 702.997 347.499 700.789 346.443C699.829 345.867 698.917 344.907 698.053 343.563C697.861 343.179 697.765 342.891 697.765 342.699L697.333 341.835C697.141 341.355 696.997 340.875 696.901 340.395C696.805 339.819 696.709 339.243 696.613 338.667C696.613 338.187 696.565 337.707 696.469 337.227C696.373 336.747 696.277 336.267 696.181 335.787C696.085 335.019 696.085 334.203 696.181 333.339V331.179L696.325 319.803L696.613 298.635C696.709 295.563 696.757 292.395 696.757 289.131C696.757 285.867 696.757 282.507 696.757 279.051C696.661 275.595 696.613 272.523 696.613 269.835C696.709 267.147 696.853 264.123 697.045 260.763V260.187C697.141 259.227 697.189 258.267 697.189 257.307C697.189 256.251 697.237 255.195 697.333 254.139C697.429 253.179 697.573 252.267 697.765 251.403C698.053 250.443 698.437 249.483 698.917 248.523C699.205 247.755 699.589 247.131 700.069 246.651C700.549 246.075 701.125 245.547 701.797 245.067C703.333 244.299 704.869 243.915 706.405 243.915C707.173 243.915 707.845 243.963 708.421 244.059C708.997 244.059 709.573 244.107 710.149 244.203C711.301 244.299 712.405 244.875 713.461 245.931C714.229 246.603 714.757 247.371 715.045 248.235C715.525 249.483 715.813 250.587 715.909 251.547C716.005 252.219 716.053 252.843 716.053 253.419C716.053 253.995 716.053 254.571 716.053 255.147V261.051L715.765 284.811C716.533 284.811 717.397 284.811 718.357 284.811C719.413 284.811 720.613 284.763 721.957 284.667C726.949 284.667 731.893 284.715 736.789 284.811C741.781 284.907 747.013 284.955 752.485 284.955H752.629C752.629 280.635 752.629 276.507 752.629 272.571C752.725 268.635 752.869 264.507 753.061 260.187C753.061 259.227 753.061 258.267 753.061 257.307C753.157 256.251 753.253 255.195 753.349 254.139C753.445 253.179 753.589 252.267 753.781 251.403C754.069 250.443 754.453 249.483 754.933 248.523C755.125 247.755 755.461 247.131 755.941 246.651C756.517 246.075 757.189 245.547 757.957 245.067C759.301 244.299 760.789 243.915 762.421 243.915C763.189 243.915 763.861 243.963 764.437 244.059C765.109 244.059 765.685 244.107 766.165 244.203C767.509 244.395 768.613 244.971 769.477 245.931C770.245 246.411 770.773 247.179 771.061 248.235C771.253 248.811 771.397 249.387 771.493 249.963C771.685 250.443 771.877 250.971 772.069 251.547ZM858.024 252.411C858.6 257.019 858.936 262.395 859.032 268.539C859.128 274.587 859.032 280.731 858.744 286.971C858.552 293.115 858.12 298.971 857.448 304.539C856.776 310.011 855.96 314.427 855 317.787C854.328 319.803 853.512 321.915 852.552 324.123C851.688 326.235 850.728 328.155 849.672 329.883C848.136 332.475 846.264 334.779 844.056 336.795C841.848 338.715 839.4 340.395 836.712 341.835C834.12 343.179 831.336 344.235 828.36 345.003C825.48 345.771 822.6 346.203 819.72 346.299C814.632 346.491 809.784 345.771 805.176 344.139C800.664 342.411 796.488 339.723 792.648 336.075C789.768 333.291 787.464 330.315 785.736 327.147C784.008 323.979 782.664 320.667 781.704 317.211C780.744 313.659 780.12 310.011 779.832 306.267C779.64 302.523 779.544 298.683 779.544 294.747C779.544 292.923 779.496 290.667 779.4 287.979C779.4 285.195 779.4 282.363 779.4 279.483C779.4 276.507 779.4 273.627 779.4 270.843C779.4 268.059 779.448 265.707 779.544 263.787C779.544 262.539 779.544 261.195 779.544 259.755C779.544 258.219 779.592 256.731 779.688 255.291C779.88 253.755 780.168 252.315 780.552 250.971C780.936 249.531 781.512 248.235 782.28 247.083C783.144 245.835 784.344 244.923 785.88 244.347C787.416 243.771 789 243.483 790.632 243.483C792.36 243.483 793.992 243.819 795.528 244.491C797.064 245.163 798.312 246.123 799.272 247.371C799.752 248.139 800.088 248.907 800.28 249.675C800.472 250.443 800.616 251.307 800.712 252.267C800.904 255.435 801 259.035 801 263.067C801.096 267.099 801.096 271.035 801 274.875C801 278.619 800.952 282.075 800.856 285.243C800.76 288.411 800.712 290.763 800.712 292.299C800.712 298.059 801 303.291 801.576 307.995C802.152 312.603 803.496 316.443 805.608 319.515C807.528 322.299 809.784 324.075 812.376 324.843C814.968 325.611 817.56 325.851 820.152 325.563C822.552 325.275 824.952 324.411 827.352 322.971C829.848 321.435 831.816 319.227 833.256 316.347C833.832 315.291 834.312 314.091 834.696 312.747C835.08 311.403 835.368 310.155 835.56 309.003C835.944 305.355 836.28 301.131 836.568 296.331C836.856 291.435 837.096 286.443 837.288 281.355C837.48 276.267 837.576 271.275 837.576 266.379C837.576 261.483 837.528 257.067 837.432 253.131C837.624 251.403 838.152 249.819 839.016 248.379C839.784 247.131 840.888 246.027 842.328 245.067C843.768 244.107 845.736 243.627 848.232 243.627C850.248 243.723 851.88 244.251 853.128 245.211C854.376 246.075 855.384 247.035 856.152 248.091C857.016 249.339 857.64 250.779 858.024 252.411ZM920.201 293.307C922.985 295.131 925.337 297.291 927.257 299.787C929.273 302.187 930.857 305.163 932.009 308.715C933.257 312.651 933.881 316.635 933.881 320.667C933.977 324.603 933.257 328.299 931.721 331.755C930.281 335.115 927.929 338.091 924.665 340.683C921.497 343.179 917.321 344.955 912.137 346.011C909.353 346.683 906.089 347.211 902.345 347.595C898.601 347.979 895.241 348.171 892.265 348.171C888.521 348.267 884.633 348.267 880.601 348.171C876.665 348.171 872.825 347.787 869.081 347.019C867.449 346.539 866.249 345.723 865.481 344.571C864.809 343.323 864.329 341.931 864.041 340.395C863.657 339.531 863.465 338.667 863.465 337.803V256.011C863.465 253.323 863.993 251.259 865.049 249.819C866.201 248.283 867.689 247.179 869.513 246.507C871.337 245.739 873.401 245.307 875.705 245.211C878.009 245.019 880.409 244.923 882.905 244.923C884.825 244.923 886.745 244.923 888.665 244.923C890.681 244.827 892.697 244.827 894.713 244.923C897.881 245.019 901.145 245.307 904.505 245.787C907.961 246.171 911.225 246.939 914.297 248.091C915.737 248.571 917.273 249.243 918.905 250.107C920.537 250.875 921.833 251.835 922.793 252.987C925.865 255.771 928.121 259.035 929.561 262.779C931.097 266.427 931.769 270.171 931.577 274.011C931.385 277.755 930.329 281.355 928.409 284.811C926.585 288.267 923.849 291.099 920.201 293.307ZM895.001 331.467C897.977 331.275 901.001 330.939 904.073 330.459C907.145 329.979 909.257 329.067 910.409 327.723C911.657 326.187 912.521 324.411 913.001 322.395C913.577 320.283 913.721 318.171 913.433 316.059C913.241 313.851 912.617 311.787 911.561 309.867C910.601 307.851 909.305 306.267 907.673 305.115C905.465 303.387 902.921 302.283 900.041 301.803C897.161 301.227 894.329 300.939 891.545 300.939C890.201 300.939 888.953 300.987 887.801 301.083C886.745 301.083 885.785 301.227 884.921 301.515C884.153 301.707 883.577 302.139 883.193 302.811C882.809 303.483 882.617 304.491 882.617 305.835C882.809 308.331 882.809 310.827 882.617 313.323C882.425 315.819 882.329 318.219 882.329 320.523C882.329 321.867 882.281 323.355 882.185 324.987C882.185 326.523 882.713 327.819 883.769 328.875C884.825 329.931 886.361 330.651 888.377 331.035C890.393 331.419 892.601 331.563 895.001 331.467ZM897.881 262.347C894.905 262.251 892.409 262.203 890.393 262.203C888.473 262.107 886.937 262.251 885.785 262.635C884.729 262.923 883.961 263.643 883.481 264.795C883.097 265.851 882.953 267.483 883.049 269.691C883.049 271.515 883.001 273.339 882.905 275.163C882.905 276.891 882.905 278.619 882.905 280.347C882.905 282.267 883.529 283.707 884.777 284.667C886.025 285.531 887.561 286.059 889.385 286.251C891.305 286.443 893.273 286.443 895.289 286.251C897.401 286.059 899.225 285.819 900.761 285.531C904.217 284.955 906.857 283.803 908.681 282.075C910.601 280.251 911.705 277.611 911.993 274.155C912.377 269.835 911.225 266.859 908.537 265.227C905.945 263.499 902.393 262.539 897.881 262.347Z" fill="white"/>
</g>
<g clip-path="url(#clip0)" filter="url(#filter1_d)">
<path d="M1202.65 415.273C1202.08 409.91 1199.77 405.48 1195.99 402.465L1195.94 402.426C1194.21 401.075 1192.25 400.06 1190.15 399.434L1189.92 399.365C1180.03 396.571 1167.49 401.928 1158.71 412.699C1152.27 420.571 1148.95 430.114 1149.82 438.228C1150.4 443.594 1152.71 448.026 1156.5 451.047L1156.55 451.079C1158.27 452.429 1160.24 453.444 1162.34 454.07C1172.27 457.04 1184.92 451.714 1193.85 440.81C1200.23 432.934 1203.53 423.391 1202.65 415.273Z" fill="white"/>
<path d="M1147.49 456.556C1142.83 451.45 1138.43 446.621 1136.66 439.78C1131.79 420.855 1128.85 409.431 1113.55 404.855C1098.25 400.279 1089.5 408.209 1075.02 421.347C1069.78 426.098 1063.44 427.719 1056.72 429.441C1049.02 431.411 1041.07 433.447 1035.77 440.551C1033.78 443.087 1032.3 445.982 1031.39 449.078C1027.51 462.061 1034.46 475.649 1046.89 479.364C1053.3 481.281 1060.78 481.1 1068.71 480.908C1076.32 480.723 1084.2 480.532 1090.4 482.387C1096.61 484.243 1103.07 488.72 1109.31 493.049C1115.81 497.54 1121.94 501.791 1128.37 503.714C1140.77 507.424 1154.03 499.878 1157.91 486.895C1158.84 483.807 1159.18 480.568 1158.89 477.353C1158.37 468.501 1152.84 462.428 1147.49 456.556Z" fill="white"/>
<path d="M1079.06 380.715C1081.75 387.392 1086.31 391.991 1091.92 393.667C1092.68 393.896 1093.47 394.068 1094.26 394.181C1106.46 395.958 1118.01 383.871 1120.56 366.637C1121.64 359.393 1120.9 352.125 1118.5 346.185C1115.82 339.52 1111.25 334.922 1105.65 333.247C1104.88 333.019 1104.1 332.847 1103.31 332.733C1091.11 330.957 1079.56 343.044 1077.01 360.278C1075.93 367.51 1076.67 374.77 1079.06 380.715Z" fill="white"/>
<path d="M1135.54 406.527C1136.26 406.866 1137.01 407.151 1137.78 407.38C1143.38 409.057 1149.72 407.718 1155.63 403.611C1160.89 399.955 1165.48 394.289 1168.57 387.65C1175.9 371.853 1172.88 355.41 1161.71 350.187C1160.98 349.848 1160.23 349.563 1159.47 349.334C1153.87 347.666 1147.52 348.998 1141.62 353.096C1136.36 356.748 1131.75 362.417 1128.67 369.071C1121.35 384.868 1124.36 401.312 1135.54 406.527Z" fill="white"/>
<path d="M1052.24 419.886L1052.29 419.883C1057.12 419.441 1061.48 417.007 1064.9 412.841C1070.09 406.523 1072.55 396.735 1071.5 386.624C1070.05 372.631 1062.41 361.233 1052.48 358.266C1050.38 357.635 1048.18 357.404 1046 357.586L1045.94 357.589C1041.13 358.019 1036.77 360.468 1033.35 364.634C1028.16 370.952 1025.7 380.741 1026.75 390.851C1028.2 404.844 1035.84 416.242 1045.76 419.209C1047.86 419.837 1050.06 420.067 1052.24 419.886V419.886Z" fill="white"/>
</g>
<g clip-path="url(#clip1)" filter="url(#filter2_d)">
<path d="M164.529 56.8992C161.519 53.5675 157.803 51.7059 153.782 51.52L153.728 51.5188C151.904 51.4515 150.084 51.7274 148.362 52.332L148.172 52.3983C140.147 55.3416 134.308 65.0791 133.647 76.6288C133.155 85.078 135.577 93.133 140.127 98.1767C143.135 101.512 146.857 103.372 150.892 103.553L150.936 103.554C152.76 103.621 154.58 103.345 156.303 102.741C164.448 99.892 170.372 90.1245 171.063 78.4146C171.52 69.9877 169.083 61.9449 164.529 56.8992Z" fill="white"/>
<path d="M148.1 109.636C142.469 108.468 137.145 107.361 132.611 103.615C120.085 93.2369 112.523 86.9733 99.9736 91.3624C87.4244 95.7516 85.4025 105.367 82.0583 121.296C80.8431 127.06 77.362 131.249 73.6762 135.689C69.4492 140.778 65.0818 146.035 64.9819 153.41C64.8784 156.092 65.29 158.769 66.1944 161.296C69.9185 171.944 81.2416 177.707 91.4303 174.143C96.6875 172.304 101.645 168.526 106.892 164.527C111.936 160.682 117.151 156.707 122.239 154.928C127.327 153.148 133.868 153.011 140.188 152.881C146.767 152.731 152.973 152.605 158.245 150.761C168.419 147.203 173.667 135.644 169.943 124.996C169.064 122.458 167.708 120.111 165.946 118.084C161.27 112.373 154.574 110.982 148.1 109.636Z" fill="white"/>
<path d="M64.3439 93.9678C69.4151 97.1571 74.739 98.0275 79.3357 96.4198C79.9632 96.2003 80.5736 95.9346 81.1619 95.6248C90.2562 90.8618 92.1383 77.0731 85.4394 64.2115C82.6269 58.8029 78.5798 54.2649 74.0646 51.4296C69.0024 48.2472 63.6737 47.3818 59.0799 48.9885C58.4524 49.208 57.842 49.4737 57.2538 49.7835C48.1594 54.5465 46.2773 68.3351 52.9763 81.1967C55.7827 86.5975 59.8277 91.1296 64.3439 93.9678Z" fill="white"/>
<path d="M115.018 83.784C115.672 83.6596 116.314 83.487 116.942 83.2675C121.542 81.6588 125.16 77.661 127.138 72.0062C128.897 66.9729 129.224 60.9118 128.062 54.9291C125.287 40.7019 115.221 31.0922 105.138 33.0296C104.485 33.1541 103.842 33.3267 103.215 33.5462C98.6232 35.1588 94.9954 39.1567 93.0203 44.8005C91.2564 49.8319 90.92 55.9031 92.0967 61.8905C94.8721 76.1177 104.938 85.7275 115.018 83.784Z" fill="white"/>
<path d="M65.3936 133.473L65.4299 133.443C68.4671 130.789 70.2168 127.019 70.4883 122.539C70.8985 115.748 67.7779 107.947 62.133 101.644C54.319 92.9223 43.6001 88.9726 35.464 91.8183C33.7402 92.4184 32.1446 93.3373 30.7604 94.5271L30.7241 94.5564C27.6916 97.196 25.9461 100.978 25.6746 105.457C25.2644 112.249 28.3849 120.05 34.0298 126.352C41.8438 135.074 52.5628 139.024 60.6989 136.178C62.4193 135.578 64.0118 134.66 65.3936 133.473V133.473Z" fill="white"/>
</g>
<defs>
<filter id="filter0_d" x="28.082" y="12.248" width="1209.44" height="445.723" filterUnits="userSpaceOnUse" color-interpolation-filters="sRGB">
<feFlood flood-opacity="0" result="BackgroundImageFix"/>
<feColorMatrix in="SourceAlpha" type="matrix" values="0 0 0 0 0 0 0 0 0 0 0 0 0 0 0 0 0 0 127 0"/>
<feOffset dy="4"/>
<feGaussianBlur stdDeviation="10"/>
<feColorMatrix type="matrix" values="0 0 0 0 0 0 0 0 0 0.617222 0 0 0 0 0.841667 0 0 0 1 0"/>
<feBlend mode="normal" in2="BackgroundImageFix" result="effect1_dropShadow"/>
<feBlend mode="normal" in="SourceGraphic" in2="effect1_dropShadow" result="shape"/>
</filter>
<filter id="filter1_d" x="985.992" y="296.311" width="248.205" height="248.205" filterUnits="userSpaceOnUse" color-interpolation-filters="sRGB">
<feFlood flood-opacity="0" result="BackgroundImageFix"/>
<feColorMatrix in="SourceAlpha" type="matrix" values="0 0 0 0 0 0 0 0 0 0 0 0 0 0 0 0 0 0 127 0"/>
<feOffset dy="4"/>
<feGaussianBlur stdDeviation="2"/>
<feColorMatrix type="matrix" values="0 0 0 0 0 0 0 0 0 0 0 0 0 0 0 0 0 0 0.25 0"/>
<feBlend mode="normal" in2="BackgroundImageFix" result="effect1_dropShadow"/>
<feBlend mode="normal" in="SourceGraphic" in2="effect1_dropShadow" result="shape"/>
</filter>
<filter id="filter2_d" x="-3.64648" y="0.533203" width="212.684" height="212.684" filterUnits="userSpaceOnUse" color-interpolation-filters="sRGB">
<feFlood flood-opacity="0" result="BackgroundImageFix"/>
<feColorMatrix in="SourceAlpha" type="matrix" values="0 0 0 0 0 0 0 0 0 0 0 0 0 0 0 0 0 0 127 0"/>
<feOffset dy="4"/>
<feGaussianBlur stdDeviation="2"/>
<feColorMatrix type="matrix" values="0 0 0 0 0 0 0 0 0 0 0 0 0 0 0 0 0 0 0.25 0"/>
<feBlend mode="normal" in2="BackgroundImageFix" result="effect1_dropShadow"/>
<feBlend mode="normal" in="SourceGraphic" in2="effect1_dropShadow" result="shape"/>
</filter>
<clipPath id="clip0">
<rect width="193.001" height="193.001" fill="white" transform="translate(1045.29 296.311) rotate(16.6487)"/>
</clipPath>
<clipPath id="clip1">
<rect width="160.653" height="160.653" fill="white" transform="translate(0.353516 53.5723) rotate(-19.2775)"/>
</clipPath>
</defs>
</svg>
